<svg width="350" height="77" viewBox="0 0 350 77" fill="none" xmlns="http://www.w3.org/2000/svg">
<path d="M87.739 76.3741H97.0627V6H87.739V76.3741Z" fill="white"/>
<path d="M115.091 28H105.864V53.5636C105.864 68.2701 112.4 75.574 125.857 75.574C133.162 75.574 138.449 73.4026 142.294 68.2701C145.658 63.8285 145.85 59.2883 145.85 53.5636V28H136.622V53.3662C136.622 61.8545 132.778 66.2961 125.761 66.2961C118.84 66.2961 115.091 61.8545 115.091 53.3662V28Z" fill="white"/>
<path d="M155.099 75.9818H164.231V49.0363C164.231 42.1272 168.268 38.4753 175.669 38.4753C176.054 38.4753 176.438 38.4753 176.823 38.4753V29C176.342 29 175.861 29 175.477 29C163.174 29 155.099 36.7974 155.099 49.135V75.9818Z" fill="white"/>
<path d="M203.297 36.1792C211.371 36.1792 217.619 42.6935 217.619 51.5766C217.619 60.5584 211.66 66.5792 202.817 66.5792C194.358 66.5792 188.398 60.5584 188.398 52.0701C188.398 42.5948 195.031 36.1792 203.297 36.1792ZM223.002 63.9142L226.558 74.7714H236.17L227.423 47.9246C225.693 42.4961 224.059 37.6597 220.214 33.7116C215.793 29.2701 210.314 27 203.586 27C189.36 27 178.979 37.8571 178.979 51.4779C178.979 65.6909 188.783 75.9558 202.817 75.9558C211.756 75.9558 218.773 71.8103 223.002 63.9142Z" fill="white"/>
<path d="M239.258 76.3741H248.389V54.8572C259.731 55.0546 265.499 61.4702 265.499 74.2027C265.499 74.8936 265.402 75.5845 265.402 76.3741H274.63C274.63 75.7819 274.63 75.2884 274.63 74.6962C274.63 60.6806 269.824 52.1923 260.02 48.9351L274.63 29.9844H263.48L248.389 49.8233V6H239.258V76.3741Z" fill="white"/>
<path d="M289.134 28H279.906V53.5636C279.906 68.2701 286.442 75.574 299.899 75.574C307.204 75.574 312.491 73.4026 316.336 68.2701C319.7 63.8285 319.892 59.2883 319.892 53.5636V28H310.665V53.3662C310.665 61.8545 306.82 66.2961 299.803 66.2961C292.882 66.2961 289.134 61.8545 289.134 53.3662V28Z" fill="white"/>
<path d="M325.585 38.1481H330.199V55.5195C330.199 68.7455 337.216 76.1481 350 76.3455V66.8702C342.118 66.0806 339.234 61.8364 339.234 52.7559V38.1481H349.423V29.9559H339.234V19H330.199V29.9559H325.585V38.1481Z" fill="white"/>
<path d="M82.787 73.4406L43.0164 0.830638C42.4085 -0.276879 40.5915 -0.276879 39.9836 0.830638L0.213021 73.4406C-0.0808008 73.9757 -0.0706693 74.6274 0.243416 75.1525C0.554124 75.6775 1.11813 76 1.72941 76H81.2706C81.8819 76 82.4459 75.6775 82.7566 75.1525C83.0707 74.6274 83.0808 73.9757 82.787 73.4406ZM24.5327 39.7273H58.4673L41.5 70.6765L24.5327 39.7273Z" fill="white"/>
</svg>
